<?xml version="1.0" encoding="UTF-8" standalone="no"?>
<svg width="285px" height="75px" viewBox="0 0 285 75" version="1.1" xmlns="http://www.w3.org/2000/svg" xmlns:xlink="http://www.w3.org/1999/xlink">
    <!-- Generator: Sketch 39 (31667) - http://www.bohemiancoding.com/sketch -->
    <title>oly-rio-identity-revised</title>
    <desc>Created with Sketch.</desc>
    <defs></defs>
    <g id="Page-1" stroke="none" stroke-width="1" fill="none" fill-rule="evenodd">
        <g id="oly-rio-identity-revised" transform="translate(-1.000000, 0.000000)">
            <g id="Layer_1_copy">
                <g id="Page-1_1_">
                    <g id="Group_1_">
                        <g id="Rio_1_" transform="translate(0.255376, 0.770548)" fill="#000000">
                            <path d="M56.2634409,40.505137 L53.1223118,40.505137 L53.1223118,38.2962329 C53.1223118,34.1609589 53.0456989,32.6969178 52.2540323,30.9246575 C50.9260753,27.9708904 48.5255376,26.6609589 43.3924731,25.7619863 L43.3924731,25.6078767 C45.8951613,24.8630137 46.9932796,24.4263699 48.0147849,23.7585616 C51.2325269,21.7037671 52.9946237,18.2363014 52.9946237,13.6643836 C52.9946237,8.73287671 51.155914,5.03424658 47.6317204,2.61986301 C45.077957,0.84760274 42.3454301,0.179794521 38.1061828,0.179794521 L1,0.179794521 L1,11.5325342 L5.85215054,11.5325342 L5.85215054,40.505137 L1,40.505137 L1,51.8578767 L29.8064516,51.8578767 L29.8064516,40.505137 L24.8266129,40.505137 L24.8266129,31.3613014 L26.4354839,31.3613014 C32.0026882,31.3613014 33.9946237,33.3390411 33.9946237,39.015411 L33.9946237,51.8321918 L56.2634409,51.8321918 L56.2634409,40.505137 L56.2634409,40.505137 Z M33.5604839,17.4400685 C33.5604839,21.5753425 31.6451613,23.4760274 27.405914,23.4760274 L24.8521505,23.4760274 L24.8521505,11.5325342 L27.3548387,11.5325342 C31.7983871,11.5325342 33.5604839,13.1506849 33.5604839,17.4400685 L33.5604839,17.4400685 L33.5604839,17.4400685 Z M78.0215054,0.179794521 L61.4475806,0.179794521 L61.4475806,12.7910959 L78.0215054,12.7910959 L78.0215054,0.179794521 L78.0215054,0.179794521 Z M81.0860215,42.2773973 L77.9959677,42.2773973 L77.9959677,16.4640411 L58.5107527,16.4640411 L58.5107527,26.0445205 L61.4475806,26.0445205 L61.4475806,42.2517123 L58.5107527,42.2517123 L58.5107527,51.8321918 L81.0860215,51.8321918 L81.0860215,42.2773973 L81.0860215,42.2773973 Z M123.989247,34.3150685 C123.989247,22.140411 114.02957,15.744863 102.818548,15.744863 C91.7607527,15.744863 81.5712366,22.2431507 81.5712366,34.2380137 C81.5712366,46.1815068 91.9905914,52.6027397 102.895161,52.6027397 C113.799731,52.6027397 123.989247,46.2585616 123.989247,34.3150685 L123.989247,34.3150685 L123.989247,34.3150685 Z M107.670699,34.4691781 C107.670699,37.6284247 107.083333,42.5856164 102.895161,42.5856164 C98.7069892,42.5856164 98.3494624,36.3955479 98.3494624,33.4417808 C98.3494624,30.4880137 98.936828,25.3253425 102.895161,25.3253425 C107.466398,25.3253425 107.670699,31.130137 107.670699,34.4691781 L107.670699,34.4691781 L107.670699,34.4691781 Z" id="Shape"></path>
                            <path d="M52.6184684,40.8059928 L52.6184684,38.5833288 C52.6184684,34.422295 52.5422207,32.949134 51.7543279,31.1658338 C50.4327013,28.1936668 48.043607,26.8755753 42.9350118,25.9710028 C45.4257697,25.0664302 46.5186532,24.6270664 47.5352891,23.9550982 C50.737692,21.8875037 52.4913889,18.3984381 52.4913889,13.7980405 C52.4913889,8.83581388 50.6614444,5.1141439 47.1540506,2.68472044 C44.612461,0.901420246 41.8929601,0.229452055 37.6739213,0.229452055 L0.744623656,0.229452055 L0.744623656,11.6529113 L5.57364399,11.6529113 L5.57364399,40.8059928 L0.744623656,40.8059928 L0.744623656,52.2294521 L29.4137549,52.2294521 L29.4137549,40.8059928 L24.4576551,40.8059928 L24.4576551,31.6051976 L26.0588566,31.6051976 C31.599522,31.6051976 33.5819619,33.5952572 33.5819619,39.3069868 L33.5819619,52.2036071 L55.7446237,52.2036071 L55.7446237,40.8059928 L52.6184684,40.8059928 Z M33.5604839,17.4400685 C33.5604839,21.5753425 31.6451613,23.4760274 27.405914,23.4760274 L24.8521505,23.4760274 L24.8521505,11.5325342 L27.3548387,11.5325342 C31.7983871,11.5325342 33.5604839,13.1506849 33.5604839,17.4400685 L33.5604839,17.4400685 L33.5604839,17.4400685 Z M78.7446237,0.229452055 L61.7446237,0.229452055 L61.7446237,13.2294521 L78.7446237,13.2294521 L78.7446237,0.229452055 L78.7446237,0.229452055 Z M81.7446237,41.7741144 L78.5964336,41.7741144 L78.5964336,16.2294521 L58.7446237,16.2294521 L58.7446237,25.7102073 L61.7367051,25.7102073 L61.7367051,41.7486968 L58.7446237,41.7486968 L58.7446237,51.2294521 L81.7446237,51.2294521 L81.7446237,41.7741144 L81.7446237,41.7741144 Z M102.782553,16.2294521 C91.8337266,16.2294521 81.7446237,22.752797 81.7446237,34.793912 C81.7446237,46.783459 92.0613004,53.2294521 102.858411,53.2294521 C113.655521,53.2294521 123.744624,46.8608109 123.744624,34.8712639 C123.744624,22.6496611 113.883094,16.2294521 102.782553,16.2294521 Z M107.744624,34.2354044 C107.744624,37.3470116 107.1775,42.2294521 103.133665,42.2294521 C99.0898291,42.2294521 98.7446237,36.1327259 98.7446237,33.2234997 C98.7446237,30.3142735 99.3117469,25.2294521 103.133665,25.2294521 C107.547363,25.2294521 107.744624,30.946714 107.744624,34.2354044 L107.744624,34.2354044 L107.744624,34.2354044 Z" id="Shape"></path>
                        </g>
                        <path d="M170.974534,37.4619512 L160.890062,37.4619512 L160.890062,42.7360976 L147.953416,42.7360976 L147.953416,41.9863415 L158.267081,33.015122 C164.76087,27.3014634 167.409317,21.8204878 167.409317,16.0292683 C167.409317,6.07560976 159.514907,-7.10542736e-15 146.883851,-7.10542736e-15 C139.72795,-7.10542736e-15 134.609317,1.78390244 132.190062,2.37853659 L132.190062,14.2453659 L132.928571,14.2453659 C137.308696,12.0995122 140.670186,11.66 143.318634,11.66 C148.131677,11.66 151.569565,14.4004878 151.569565,18.7180488 C151.569565,20.9414634 150.831056,22.5702439 149.736025,24.0697561 C147.469565,27.1204878 144.388199,30.1453659 141.179503,32.9634146 L130,42.7619512 L130,53 L171,53 L171,37.4619512 L170.974534,37.4619512 Z M215,26.3787152 C215,9.21572387 207.68568,-7.10542736e-15 194.076456,-7.10542736e-15 C180.186893,-7.10542736e-15 173,9.13806328 173,26.7411314 C173,44.6548418 180.671117,54 194.076456,54 C208.042476,54 215,43.8264621 215,26.3787152 L215,26.3787152 L215,26.3787152 Z M199,31.0711553 C199,40.6182096 198.322917,44 194.078125,44 C189.677083,44 189,40.3320581 189,31.0711553 L189,22.8508034 C189,14.3442999 189.364583,10 194.078125,10 C198.479167,10 199,13.9540933 199,22.8508034 L199,31.0711553 L199,31.0711553 Z M244,42.7654076 L238.037037,42.7654076 L238.037037,1 L221.962963,1 L216,3.73956262 L216,12.4234592 L221.962963,12.4234592 L221.962963,42.7654076 L216,42.7654076 L216,53 L243.974074,53 L243.974074,42.7654076 L244,42.7654076 Z M285,33.8243045 C285,24.40898 278.41345,17.2698878 270.42279,17.2698878 C268.967621,17.2698878 266.23599,17.2698878 264.551059,17.9424109 C267.563512,11.9931674 273.052304,5.83699366 277.290162,1.75012201 L277.290162,1 L258.60274,1 C255.156289,5.75939483 253.828767,7.7510981 252.143836,10.4153245 C246.78269,18.795998 244,27.0473402 244,34.6261591 C244,45.9038555 252.501245,54 264.806351,54 C276.728518,54 285,45.6193265 285,33.8243045 L285,33.8243045 L285,33.8243045 Z M271,35.5111821 C271,39.9840256 268.93911,43 265.538642,43 C261.906323,43 260,40.0607029 260,35 C260,29.9392971 261.932084,27 265.538642,27 C268.913349,27 271,30.3738019 271,35.5111821 L271,35.5111821 L271,35.5111821 Z" id="_x32_016_1_" fill="#000000"></path>
                        <rect id="Rectangle-63-Copy_1_" fill="#257EB8" x="1" y="65" width="57" height="10"></rect>
                        <rect id="Rectangle-63-Copy-2_1_" fill="#E4B05E" x="58" y="65" width="57" height="10"></rect>
                        <rect id="Rectangle-63-Copy-3_1_" fill="#000000" x="115" y="65" width="57" height="10"></rect>
                        <polygon id="Rectangle-63-Copy-4_1_" fill="#22A254" points="172 65 229 65 229 75 172 75"></polygon>
                        <polygon id="Rectangle-63-Copy-5_1_" fill="#D73A39" points="229 65 286 65 286 75 229 75"></polygon>
                    </g>
                </g>
            </g>
        </g>
    </g>
</svg>